<svg width="161" height="16" viewBox="0 0 161 16" fill="none" xmlns="http://www.w3.org/2000/svg">
<path d="M0.459913 13.5672C0.332159 13.5672 0.223569 13.5289 0.134141 13.4522C0.0447137 13.3628 0 13.2478 0 13.1073V0.632152C0 0.491623 0.0447137 0.376645 0.134141 0.287218C0.223569 0.19779 0.332159 0.153076 0.459913 0.153076H10.5013C10.6419 0.153076 10.7568 0.19779 10.8463 0.287218C10.9357 0.376645 10.9804 0.491623 10.9804 0.632152V13.1073C10.9804 13.235 10.9357 13.3436 10.8463 13.433C10.7568 13.5225 10.6419 13.5672 10.5013 13.5672H8.77666C8.64891 13.5672 8.54032 13.5225 8.45089 13.433C8.36147 13.3436 8.31675 13.235 8.31675 13.1073V2.54845H2.66366V13.1073C2.66366 13.235 2.61895 13.3436 2.52952 13.433C2.45287 13.5225 2.34428 13.5672 2.20375 13.5672H0.459913Z" fill="#5168C7"/>
<path d="M13.1365 13.5672C13.0343 13.5672 12.9385 13.5289 12.8491 13.4522C12.7725 13.3756 12.7341 13.2797 12.7341 13.1648C12.7341 13.1137 12.7469 13.0562 12.7725 12.9923L17.3907 0.632152C17.4291 0.504398 17.4993 0.395808 17.6015 0.306381C17.7165 0.204178 17.8698 0.153076 18.0614 0.153076H20.1502C20.3418 0.153076 20.4888 0.204178 20.591 0.306381C20.6932 0.395808 20.7698 0.504398 20.8209 0.632152L25.4392 12.9923C25.452 13.0562 25.4584 13.1137 25.4584 13.1648C25.4584 13.2797 25.42 13.3756 25.3434 13.4522C25.2667 13.5289 25.1773 13.5672 25.0751 13.5672H23.4079C23.2291 13.5672 23.0949 13.5289 23.0055 13.4522C22.9289 13.3628 22.8778 13.2797 22.8522 13.2031L21.9515 10.8652H16.2601L15.3595 13.2031C15.3339 13.2797 15.2764 13.3628 15.187 13.4522C15.1103 13.5289 14.9826 13.5672 14.8037 13.5672H13.1365ZM16.9308 8.66146H21.2808L19.0962 2.74008L16.9308 8.66146Z" fill="#5168C7"/>
<path d="M27.7073 13.5672C27.5796 13.5672 27.471 13.5225 27.3816 13.433C27.2921 13.3436 27.2474 13.235 27.2474 13.1073V0.632152C27.2474 0.491623 27.2921 0.376645 27.3816 0.287218C27.471 0.19779 27.5796 0.153076 27.7073 0.153076H32.843C33.8395 0.153076 34.7082 0.312768 35.4492 0.632152C36.1902 0.938761 36.765 1.41145 37.1739 2.05022C37.5827 2.67621 37.7871 3.46189 37.7871 4.40727C37.7871 5.36542 37.5827 6.15749 37.1739 6.78348C36.765 7.3967 36.1902 7.85661 35.4492 8.16322C34.7082 8.46983 33.8395 8.62313 32.843 8.62313H29.9877V13.1073C29.9877 13.235 29.943 13.3436 29.8536 13.433C29.7769 13.5225 29.6683 13.5672 29.5278 13.5672H27.7073ZM29.9494 6.49604H32.7472C33.4882 6.49604 34.0567 6.32357 34.4527 5.97863C34.8487 5.62092 35.0468 5.09714 35.0468 4.40727C35.0468 3.7685 34.8615 3.25749 34.491 2.87423C34.1206 2.47819 33.5393 2.28017 32.7472 2.28017H29.9494V6.49604Z" fill="#5168C7"/>
<rect x="44.5977" y="3.58105" width="3.18472" height="3.18472" rx="1.59236" transform="rotate(-90 44.5977 3.58105)" fill="#5168C7"/>
<rect x="44.5977" y="8.76953" width="3.18472" height="3.18472" rx="1.59236" transform="rotate(-90 44.5977 8.76953)" fill="#5168C7"/>
<rect x="44.5977" y="13.9583" width="3.18472" height="3.18472" rx="1.59236" transform="rotate(-90 44.5977 13.9583)" fill="#5168C7"/>
<path d="M54.736 15.9711C54.5725 15.9711 54.4335 15.9139 54.319 15.7994C54.2209 15.7013 54.1719 15.5705 54.1719 15.407V11.8753C54.1719 11.7118 54.2209 11.581 54.319 11.4829C54.4335 11.3685 54.5725 11.3112 54.736 11.3112H54.8586C55.3001 11.2949 55.6761 11.0496 55.9868 10.5755C56.2974 10.0849 56.5345 9.32465 56.698 8.29457C56.8615 7.24814 56.9433 5.89105 56.9433 4.2233V1.08401C56.9433 0.920502 56.9923 0.789698 57.0904 0.691596C57.2049 0.577142 57.3439 0.519915 57.5074 0.519915H65.3311C65.5109 0.519915 65.6499 0.577142 65.748 0.691596C65.8461 0.789698 65.8952 0.920502 65.8952 1.08401V11.2622H67.0479C67.2277 11.2622 67.3667 11.3194 67.4648 11.4339C67.5629 11.532 67.612 11.6628 67.612 11.8263V15.407C67.612 15.5705 67.5629 15.7013 67.4648 15.7994C67.3667 15.9139 67.2277 15.9711 67.0479 15.9711H65.8952C65.7317 15.9711 65.5927 15.9139 65.4782 15.7994C65.3801 15.7013 65.3311 15.5705 65.3311 15.407V13.2733H56.4528V15.407C56.4528 15.5705 56.3955 15.7013 56.2811 15.7994C56.183 15.9139 56.0522 15.9711 55.8887 15.9711H54.736ZM57.7772 11.3112L63.6143 11.2622V2.48197H59.1751V4.49308C59.1751 6.22623 59.0525 7.64872 58.8072 8.76055C58.562 9.85604 58.2186 10.7063 57.7772 11.3112Z" fill="#EE6D48"/>
<path d="M75.4016 13.5185C74.1589 13.5185 73.1207 13.2815 72.2868 12.8073C71.4529 12.3331 70.8153 11.6791 70.3738 10.8452C69.9323 9.99502 69.6871 9.03034 69.638 7.95121C69.6217 7.67325 69.6135 7.32171 69.6135 6.8966C69.6135 6.45514 69.6217 6.1036 69.638 5.842C69.6871 4.74651 69.9323 3.78184 70.3738 2.94796C70.8316 2.11409 71.4774 1.46007 72.3113 0.985903C73.1452 0.51174 74.1753 0.274658 75.4016 0.274658C76.6278 0.274658 77.6579 0.51174 78.4918 0.985903C79.3257 1.46007 79.9633 2.11409 80.4048 2.94796C80.8626 3.78184 81.1161 4.74651 81.1651 5.842C81.1815 6.1036 81.1896 6.45514 81.1896 6.8966C81.1896 7.32171 81.1815 7.67325 81.1651 7.95121C81.1161 9.03034 80.8708 9.99502 80.4293 10.8452C79.9879 11.6791 79.3502 12.3331 78.5163 12.8073C77.6825 13.2815 76.6442 13.5185 75.4016 13.5185ZM75.4016 11.6301C76.4153 11.6301 77.2246 11.3112 77.8296 10.6736C78.4346 10.0195 78.7616 9.07121 78.8106 7.82858C78.827 7.58332 78.8352 7.27266 78.8352 6.8966C78.8352 6.52054 78.827 6.20988 78.8106 5.96462C78.7616 4.72199 78.4346 3.78184 77.8296 3.14417C77.2246 2.49015 76.4153 2.16314 75.4016 2.16314C74.3878 2.16314 73.5703 2.49015 72.949 3.14417C72.344 3.78184 72.0252 4.72199 71.9925 5.96462C71.9761 6.20988 71.968 6.52054 71.968 6.8966C71.968 7.27266 71.9761 7.58332 71.9925 7.82858C72.0252 9.07121 72.344 10.0195 72.949 10.6736C73.5703 11.3112 74.3878 11.6301 75.4016 11.6301Z" fill="#EE6D48"/>
<path d="M89.4111 13.5185C88.2502 13.5185 87.2447 13.2978 86.3944 12.8563C85.5606 12.3985 84.9147 11.7527 84.4569 10.9188C83.9991 10.0686 83.7538 9.05486 83.7211 7.87763C83.7048 7.63237 83.6966 7.30536 83.6966 6.8966C83.6966 6.48784 83.7048 6.16083 83.7211 5.91557C83.7538 4.73834 83.9991 3.73278 84.4569 2.89891C84.9147 2.04868 85.5606 1.40284 86.3944 0.961378C87.2447 0.503565 88.2502 0.274658 89.4111 0.274658C90.3594 0.274658 91.1688 0.405462 91.8391 0.66707C92.5259 0.928677 93.09 1.26386 93.5314 1.67262C93.9729 2.08139 94.2999 2.52285 94.5125 2.99701C94.7414 3.47118 94.864 3.92081 94.8803 4.34593C94.8967 4.50943 94.8476 4.64024 94.7332 4.73834C94.6187 4.83644 94.4798 4.88549 94.3162 4.88549H93.139C92.9755 4.88549 92.8529 4.85279 92.7711 4.78739C92.6894 4.70564 92.6076 4.57483 92.5259 4.39498C92.2316 3.5938 91.831 3.02971 91.3241 2.7027C90.8172 2.37569 90.1878 2.21219 89.4356 2.21219C88.4546 2.21219 87.6534 2.51467 87.0321 3.11964C86.4271 3.72461 86.1001 4.69746 86.0511 6.0382C86.0347 6.62682 86.0347 7.19908 86.0511 7.755C86.1001 9.11209 86.4271 10.0931 87.0321 10.6981C87.6534 11.2867 88.4546 11.581 89.4356 11.581C90.1878 11.581 90.8172 11.4175 91.3241 11.0905C91.831 10.7635 92.2316 10.1994 92.5259 9.39822C92.6076 9.21837 92.6894 9.08756 92.7711 9.00581C92.8529 8.92406 92.9755 8.88318 93.139 8.88318H94.3162C94.4798 8.88318 94.6187 8.94041 94.7332 9.05486C94.8476 9.15297 94.8967 9.28377 94.8803 9.44727C94.864 9.79063 94.7904 10.1422 94.6596 10.5019C94.5288 10.8616 94.3162 11.2295 94.0219 11.6055C93.744 11.9652 93.3924 12.2923 92.9673 12.5866C92.5422 12.8645 92.0354 13.0934 91.4467 13.2733C90.8581 13.4368 90.1796 13.5185 89.4111 13.5185Z" fill="#EE6D48"/>
<path d="M101.693 13.2733C101.529 13.2733 101.39 13.2242 101.276 13.1261C101.178 13.0117 101.128 12.8727 101.128 12.7092V2.48197H96.861C96.6975 2.48197 96.5585 2.43292 96.444 2.33482C96.3459 2.22037 96.2969 2.08139 96.2969 1.91788V1.08401C96.2969 0.920502 96.3459 0.789698 96.444 0.691596C96.5585 0.577142 96.6975 0.519915 96.861 0.519915H107.652C107.816 0.519915 107.947 0.577142 108.045 0.691596C108.159 0.789698 108.216 0.920502 108.216 1.08401V1.91788C108.216 2.08139 108.159 2.22037 108.045 2.33482C107.947 2.43292 107.816 2.48197 107.652 2.48197H103.385V12.7092C103.385 12.8727 103.336 13.0117 103.238 13.1261C103.14 13.2242 103.009 13.2733 102.845 13.2733H101.693Z" fill="#EE6D48"/>
<path d="M113.899 13.5185C113.082 13.5185 112.338 13.355 111.668 13.028C110.997 12.701 110.458 12.2596 110.049 11.7036C109.64 11.1477 109.436 10.5182 109.436 9.81516C109.436 8.68698 109.894 7.7877 110.809 7.11733C111.725 6.44696 112.918 6.0055 114.39 5.79294L118.044 5.2779V4.56666C118.044 3.78184 117.815 3.16869 117.358 2.72723C116.916 2.28577 116.189 2.06504 115.175 2.06504C114.455 2.06504 113.867 2.21219 113.409 2.5065C112.951 2.80081 112.632 3.17687 112.452 3.63468C112.354 3.87994 112.183 4.00257 111.937 4.00257H110.834C110.654 4.00257 110.515 3.95352 110.417 3.85541C110.335 3.74096 110.294 3.61016 110.294 3.463C110.294 3.21774 110.384 2.91526 110.564 2.55555C110.76 2.19584 111.054 1.8443 111.447 1.50094C111.839 1.15758 112.338 0.87145 112.943 0.642544C113.564 0.397287 114.316 0.274658 115.199 0.274658C116.18 0.274658 117.006 0.405462 117.676 0.66707C118.347 0.912327 118.87 1.24751 119.246 1.67262C119.638 2.09774 119.916 2.58008 120.08 3.11964C120.26 3.65921 120.35 4.20695 120.35 4.76286V12.7092C120.35 12.8727 120.292 13.0117 120.178 13.1261C120.08 13.2242 119.949 13.2733 119.786 13.2733H118.657C118.478 13.2733 118.339 13.2242 118.241 13.1261C118.142 13.0117 118.093 12.8727 118.093 12.7092V11.6546C117.881 11.9489 117.595 12.2432 117.235 12.5375C116.875 12.8155 116.426 13.0526 115.886 13.2488C115.346 13.4286 114.684 13.5185 113.899 13.5185ZM114.414 11.6791C115.085 11.6791 115.698 11.5401 116.254 11.2622C116.81 10.9679 117.243 10.5182 117.554 9.91326C117.881 9.3083 118.044 8.548 118.044 7.63237V6.94565L115.199 7.36259C114.038 7.52609 113.164 7.80405 112.575 8.19646C111.986 8.57252 111.692 9.05486 111.692 9.64348C111.692 10.1013 111.823 10.4855 112.085 10.7962C112.363 11.0905 112.706 11.3112 113.115 11.4584C113.54 11.6055 113.973 11.6791 114.414 11.6791Z" fill="#EE6D48"/>
<path d="M124.44 13.2733C124.276 13.2733 124.137 13.2242 124.023 13.1261C123.925 13.0117 123.875 12.8727 123.875 12.7092V1.08401C123.875 0.920502 123.925 0.789698 124.023 0.691596C124.137 0.577142 124.276 0.519915 124.44 0.519915H129.541C131.078 0.519915 132.231 0.830574 132.999 1.45189C133.784 2.07321 134.176 2.90708 134.176 3.95352C134.176 4.68929 134.037 5.2452 133.759 5.62126C133.481 5.99732 133.089 6.31616 132.582 6.57777C133.203 6.83937 133.669 7.26449 133.98 7.8531C134.307 8.42537 134.471 9.02216 134.471 9.64348C134.471 10.8207 134.054 11.72 133.22 12.3413C132.402 12.9626 131.241 13.2733 129.737 13.2733H124.44ZM126.132 11.4829H129.541C130.326 11.4829 130.955 11.3358 131.429 11.0414C131.92 10.7308 132.165 10.2648 132.165 9.64348C132.165 8.98946 131.944 8.5153 131.503 8.22099C131.062 7.91033 130.407 7.755 129.541 7.755H126.132V11.4829ZM126.132 5.9401H129.394C130.179 5.9401 130.8 5.76842 131.258 5.42506C131.732 5.0817 131.969 4.59936 131.969 3.97804C131.969 3.34037 131.732 2.90708 131.258 2.67818C130.8 2.43292 130.179 2.31029 129.394 2.31029H126.132V5.9401Z" fill="#EE6D48"/>
<path d="M138.187 13.2733C138.024 13.2733 137.885 13.2242 137.77 13.1261C137.672 13.0117 137.623 12.8727 137.623 12.7092V1.08401C137.623 0.920502 137.672 0.789698 137.77 0.691596C137.885 0.577142 138.024 0.519915 138.187 0.519915H139.34C139.504 0.519915 139.634 0.577142 139.733 0.691596C139.847 0.789698 139.904 0.920502 139.904 1.08401V5.79294H142.136L145.447 0.887802C145.529 0.773348 145.619 0.68342 145.717 0.618018C145.815 0.552616 145.946 0.519915 146.109 0.519915H147.385C147.532 0.519915 147.654 0.552616 147.752 0.618018C147.851 0.68342 147.9 0.781523 147.9 0.912327C147.9 0.945028 147.883 0.994079 147.851 1.05948C147.834 1.10853 147.81 1.15758 147.777 1.20664L144.098 6.62682L148.267 12.562C148.349 12.6601 148.39 12.7664 148.39 12.8809C148.39 13.0117 148.341 13.1098 148.243 13.1752C148.161 13.2406 148.047 13.2733 147.9 13.2733H146.403C146.256 13.2733 146.134 13.2406 146.036 13.1752C145.938 13.1098 145.848 13.0199 145.766 12.9054L142.161 7.77953H139.904V12.7092C139.904 12.8727 139.847 13.0117 139.733 13.1261C139.634 13.2242 139.504 13.2733 139.34 13.2733H138.187Z" fill="#EE6D48"/>
<path d="M154.329 13.5185C153.511 13.5185 152.767 13.355 152.097 13.028C151.426 12.701 150.887 12.2596 150.478 11.7036C150.069 11.1477 149.865 10.5182 149.865 9.81516C149.865 8.68698 150.323 7.7877 151.238 7.11733C152.154 6.44696 153.348 6.0055 154.819 5.79294L158.473 5.2779V4.56666C158.473 3.78184 158.244 3.16869 157.787 2.72723C157.345 2.28577 156.618 2.06504 155.604 2.06504C154.884 2.06504 154.296 2.21219 153.838 2.5065C153.38 2.80081 153.061 3.17687 152.882 3.63468C152.783 3.87994 152.612 4.00257 152.366 4.00257H151.263C151.083 4.00257 150.944 3.95352 150.846 3.85541C150.764 3.74096 150.723 3.61016 150.723 3.463C150.723 3.21774 150.813 2.91526 150.993 2.55555C151.189 2.19584 151.484 1.8443 151.876 1.50094C152.268 1.15758 152.767 0.87145 153.372 0.642544C153.993 0.397287 154.745 0.274658 155.628 0.274658C156.609 0.274658 157.435 0.405462 158.106 0.66707C158.776 0.912327 159.299 1.24751 159.675 1.67262C160.068 2.09774 160.346 2.58008 160.509 3.11964C160.689 3.65921 160.779 4.20695 160.779 4.76286V12.7092C160.779 12.8727 160.722 13.0117 160.607 13.1261C160.509 13.2242 160.378 13.2733 160.215 13.2733H159.087C158.907 13.2733 158.768 13.2242 158.67 13.1261C158.572 13.0117 158.522 12.8727 158.522 12.7092V11.6546C158.31 11.9489 158.024 12.2432 157.664 12.5375C157.304 12.8155 156.855 13.0526 156.315 13.2488C155.776 13.4286 155.113 13.5185 154.329 13.5185ZM154.844 11.6791C155.514 11.6791 156.127 11.5401 156.683 11.2622C157.239 10.9679 157.672 10.5182 157.983 9.91326C158.31 9.3083 158.473 8.548 158.473 7.63237V6.94565L155.628 7.36259C154.468 7.52609 153.593 7.80405 153.004 8.19646C152.416 8.57252 152.121 9.05486 152.121 9.64348C152.121 10.1013 152.252 10.4855 152.514 10.7962C152.792 11.0905 153.135 11.3112 153.544 11.4584C153.969 11.6055 154.402 11.6791 154.844 11.6791Z" fill="#EE6D48"/>
</svg>
